<svg width="867" height="228" viewBox="0 30 867 228" fill="none" xmlns="http://www.w3.org/2000/svg">
    <path d="M855 235H271V88H855V235Z" fill="#20B27F"/>
    <path d="M84.736 148C84.736 163.957 80.4693 176.16 71.936 184.608C63.488 193.056 51.4133 197.28 35.712 197.28C26.5813 197.28 18.048 196.64 10.112 195.36V103.2C18.048 101.92 26.5813 101.28 35.712 101.28C51.328 101.28 63.4027 105.376 71.936 113.568C80.4693 121.675 84.736 133.152 84.736 148ZM67.712 148C67.712 126.411 57.344 115.616 36.608 115.616C33.3653 115.616 30.4213 115.872 27.776 116.384V182.176C30.4213 182.688 33.3653 182.944 36.608 182.944C47.0187 182.944 54.784 180.085 59.904 174.368C65.1093 168.651 67.712 159.861 67.712 148ZM101.797 115.36V100H119.333V115.36H101.797ZM101.797 196V129.44H119.333V196H101.797ZM152.992 157.344H184.224C184.139 151.797 182.731 147.573 180 144.672C177.355 141.685 173.6 140.192 168.736 140.192C164.043 140.192 160.288 141.685 157.472 144.672C154.741 147.659 153.248 151.883 152.992 157.344ZM152.992 168.736C153.419 173.771 155.339 177.781 158.752 180.768C162.251 183.669 166.645 185.12 171.936 185.12C178.251 185.12 184.523 183.541 190.752 180.384L194.592 192.16C186.912 195.573 178.805 197.28 170.272 197.28C160.203 197.28 152.011 194.165 145.696 187.936C139.467 181.707 136.352 173.301 136.352 162.72C136.352 151.968 139.253 143.52 145.056 137.376C150.859 131.232 158.709 128.16 168.608 128.16C178.507 128.16 186.187 131.104 191.648 136.992C197.195 142.88 199.968 151.328 199.968 162.336C199.968 164.469 199.84 166.603 199.584 168.736H152.992ZM240.23 132H263.142V144.416H240.23V171.68C240.23 176.715 240.87 180.128 242.15 181.92C243.43 183.627 245.734 184.48 249.062 184.48C253.158 184.48 256.998 183.755 260.582 182.304L262.758 194.72C257.467 196.427 251.75 197.28 245.606 197.28C237.755 197.28 232.038 195.531 228.454 192.032C224.955 188.533 223.206 182.731 223.206 174.624V144.416H209.382V132H223.206V107.68H240.23V132Z"
          fill="#20B27F"/>
    <path d="M300.032 117.024V139.936H337.536V153.632H300.032V181.536H340.096V196H282.112V102.56H340.096V117.024H300.032ZM384.105 132H407.017V144.416H384.105V171.68C384.105 176.715 384.745 180.128 386.025 181.92C387.305 183.627 389.609 184.48 392.937 184.48C397.033 184.48 400.873 183.755 404.457 182.304L406.633 194.72C401.342 196.427 395.625 197.28 389.481 197.28C381.63 197.28 375.913 195.531 372.329 192.032C368.83 188.533 367.081 182.731 367.081 174.624V144.416H353.257V132H367.081V107.68H384.105V132ZM452.483 178.464H452.739L469.379 129.44H487.043L449.923 224.16H432.259L444.291 196L419.587 129.44H437.891L452.483 178.464ZM545.228 180.128L549.068 192.544C542.071 195.701 534.817 197.28 527.308 197.28C516.641 197.28 508.065 194.165 501.58 187.936C495.095 181.707 491.852 173.301 491.852 162.72C491.852 151.883 494.967 143.435 501.196 137.376C507.511 131.232 516.215 128.16 527.308 128.16C534.817 128.16 542.071 129.739 549.068 132.896L545.228 145.568C539.852 142.496 534.135 140.96 528.076 140.96C522.017 140.96 517.281 142.837 513.868 146.592C510.54 150.347 508.876 155.723 508.876 162.72C508.876 169.547 510.625 174.923 514.124 178.848C517.708 182.773 522.359 184.736 528.076 184.736C534.22 184.736 539.937 183.2 545.228 180.128ZM586.321 183.584H620.497V196H565.457V183.584L599.633 142.112V141.856H565.457V129.44H620.497V141.856L586.321 183.328V183.584ZM638.207 129.44H653.823L654.079 138.784H654.335C656.895 135.456 660.052 132.853 663.807 130.976C667.647 129.099 671.572 128.16 675.583 128.16C683.263 128.16 688.895 130.549 692.479 135.328C696.148 140.021 697.983 147.744 697.983 158.496V196H681.599V160.16C681.599 152.821 680.746 147.872 679.039 145.312C677.332 142.667 674.26 141.344 669.823 141.344C666.068 141.344 662.612 143.264 659.455 147.104C656.383 150.944 654.847 155.424 654.847 160.544V196H638.207V129.44ZM718.797 115.36V100H736.333V115.36H718.797ZM718.797 196V129.44H736.333V196H718.797ZM769.992 157.344H801.224C801.139 151.797 799.731 147.573 797 144.672C794.355 141.685 790.6 140.192 785.736 140.192C781.043 140.192 777.288 141.685 774.472 144.672C771.741 147.659 770.248 151.883 769.992 157.344ZM769.992 168.736C770.419 173.771 772.339 177.781 775.752 180.768C779.251 183.669 783.645 185.12 788.936 185.12C795.251 185.12 801.523 183.541 807.752 180.384L811.592 192.16C803.912 195.573 795.805 197.28 787.272 197.28C777.203 197.28 769.011 194.165 762.696 187.936C756.467 181.707 753.352 173.301 753.352 162.72C753.352 151.968 756.253 143.52 762.056 137.376C767.859 131.232 775.709 128.16 785.608 128.16C795.507 128.16 803.187 131.104 808.648 136.992C814.195 142.88 816.968 151.328 816.968 162.336C816.968 164.469 816.84 166.603 816.584 168.736H769.992Z"
          fill="white"/>
    <path d="M830 223H463V222.857L468.564 208H830V223Z" fill="white"/>
    <path d="M419.414 223H282V208H425.262L419.414 223Z" fill="white"/>
    <path d="M845 223H830V164H845V223Z" fill="white"/>
</svg>
